<?xml version="1.0" encoding="UTF-8"?>
<svg width="503px" height="41px" viewBox="0 0 503 41" version="1.1" xmlns="http://www.w3.org/2000/svg" xmlns:xlink="http://www.w3.org/1999/xlink">
    <!-- Generator: Sketch 51 (57462) - http://www.bohemiancoding.com/sketch -->
    <title>Artboard</title>
    <desc>Created with Sketch.</desc>
    <defs></defs>
    <g id="Artboard" stroke="none" stroke-width="1" fill="none" fill-rule="evenodd">
        <g id="clouds" transform="translate(-24.000000, 12.000000)" fill="#FFFFFF">
            <g id="cloud" transform="translate(452.000000, 2.000000)">
                <path d="M15.9134539,58 L17.518086,58 C34.1919515,56.0739126 48.8135232,45.0204939 54.0459527,28.4586091 C56.1902318,21.6725942 56.5137134,14.7272711 55.2908202,8.11752301 C51.1852104,3.1573855 44.9997112,0 38.0798628,0 C32.0783342,0 26.6312724,2.37985877 22.6135596,6.24693655 C19.4758394,8.97727333 17.2324206,12.7107378 16.3836009,16.9560441 C15.933895,18.7320734 15.6932002,20.5939236 15.6932002,22.5123025 C15.6932002,23.6958082 15.7856965,24.8592719 15.9620016,25.9949851 C15.9476928,25.9944712 15.9292958,25.9929295 15.9134539,25.9929295 C7.12477115,25.9929295 0,33.1592284 0,41.9972356 C0,50.8352427 7.12477115,58 15.9134539,58" id="cloud_left"></path>
                <path d="M77.7385415,27.7674253 C77.3952496,27.7674253 77.0550504,27.7756697 76.7173254,27.7899601 C76.7216552,27.6547512 76.7284592,27.5184431 76.7284592,27.3815854 C76.7284592,16.6791996 66.9610317,8 54.916744,8 C52.2180367,8 49.6411827,8.44465027 47.2579328,9.24326195 C52.9875054,19.532876 54.4485062,31.5384334 50.3104472,43.1108827 C47.655038,50.5385758 42.9980207,56.9285685 37,62 L77.7385415,62 C88.3756417,62 97,54.3370654 97,44.8845371 C97,35.4320088 88.3756417,27.7674253 77.7385415,27.7674253" id="cloud_right"></path>
            </g>
            <g id="cloud-1" transform="translate(422.000000, 5.000000)">
                <path d="M13.6401033,50 L15.0155023,50 C29.307387,48.3395798 41.8401627,38.8107706 46.3251023,24.5332837 C48.1630559,18.6832709 48.4403258,12.6959234 47.3921316,6.99786467 C43.8730375,2.72188405 38.571181,0 32.6398824,0 C27.495715,0 22.8268049,2.05160239 19.3830511,5.38529013 C16.6935767,7.73902873 14.7706462,10.9575326 14.0430865,14.6172794 C13.6576243,16.1483391 13.4513145,17.7533824 13.4513145,19.4071574 C13.4513145,20.4274209 13.530597,21.4304068 13.6817157,22.4094699 C13.669451,22.4090269 13.6536821,22.4076978 13.6401033,22.4076978 C6.1069467,22.4076978 0,28.5855418 0,36.2045134 C0,43.8234851 6.1069467,50 13.6401033,50" id="cloud_left"></path>
                <path d="M69.516979,22.7407275 C69.2766747,22.7407275 69.0385353,22.7472926 68.8021278,22.7586719 C68.8051587,22.6510056 68.8099214,22.542464 68.8099214,22.4334847 C68.8099214,13.9112145 61.9727222,7 53.5417208,7 C51.6526257,7 49.8488279,7.35407337 48.180553,7.99000489 C52.1912538,16.1835864 53.2139544,25.7435673 50.317313,34.9586658 C48.4585266,40.8733104 45.1986145,45.9616379 41,50 L69.516979,50 C76.9629492,50 83,43.8980335 83,36.3710203 C83,28.844007 76.9629492,22.7407275 69.516979,22.7407275" id="cloud_right"></path>
            </g>
            <g id="cloud-1" transform="translate(370.000000, 0.000000)">
                <path d="M14.7767786,54 L16.2667942,54 C31.7496693,52.2067462 45.326843,41.9156322 50.1855275,26.4959464 C52.1766438,20.1779325 52.4770196,13.7115972 51.3414759,7.55769384 C47.5291239,2.93963478 41.7854461,0 35.3598726,0 C29.7870246,0 24.7290386,2.21573058 20.9983054,5.81611334 C18.084708,8.35815103 16.0015334,11.8341352 15.2133437,15.7866617 C14.7957597,17.4402063 14.5722573,19.173653 14.5722573,20.9597299 C14.5722573,22.0616145 14.6581468,23.1448393 14.8218587,24.2022275 C14.8085719,24.201749 14.7914889,24.2003137 14.7767786,24.2003137 C6.61585893,24.2003137 0,30.8723851 0,39.1008745 C0,47.3293639 6.61585893,54 14.7767786,54" id="cloud_left"></path>
                <path d="M66.516979,21.7407275 C66.2766747,21.7407275 66.0385353,21.7472926 65.8021278,21.7586719 C65.8051587,21.6510056 65.8099214,21.542464 65.8099214,21.4334847 C65.8099214,12.9112145 58.9727222,6 50.5417208,6 C48.6526257,6 46.8488279,6.35407337 45.180553,6.99000489 C49.1912538,15.1835864 50.2139544,24.7435673 47.317313,33.9586658 C45.4585266,39.8733104 42.1986145,44.9616379 38,49 L66.516979,49 C73.9629492,49 80,42.8980335 80,35.3710203 C80,27.844007 73.9629492,21.7407275 66.516979,21.7407275" id="cloud_right"></path>
            </g>
            <g id="cloud-1" transform="translate(330.000000, 2.000000)">
                <path d="M13.6401033,50 L15.0155023,50 C29.307387,48.3395798 41.8401627,38.8107706 46.3251023,24.5332837 C48.1630559,18.6832709 48.4403258,12.6959234 47.3921316,6.99786467 C43.8730375,2.72188405 38.571181,0 32.6398824,0 C27.495715,0 22.8268049,2.05160239 19.3830511,5.38529013 C16.6935767,7.73902873 14.7706462,10.9575326 14.0430865,14.6172794 C13.6576243,16.1483391 13.4513145,17.7533824 13.4513145,19.4071574 C13.4513145,20.4274209 13.530597,21.4304068 13.6817157,22.4094699 C13.669451,22.4090269 13.6536821,22.4076978 13.6401033,22.4076978 C6.1069467,22.4076978 0,28.5855418 0,36.2045134 C0,43.8234851 6.1069467,50 13.6401033,50" id="cloud_left"></path>
                <path d="M61.516979,20.7407275 C61.2766747,20.7407275 61.0385353,20.7472926 60.8021278,20.7586719 C60.8051587,20.6510056 60.8099214,20.542464 60.8099214,20.4334847 C60.8099214,11.9112145 53.9727222,5 45.5417208,5 C43.6526257,5 41.8488279,5.35407337 40.180553,5.99000489 C44.1912538,14.1835864 45.2139544,23.7435673 42.317313,32.9586658 C40.4585266,38.8733104 37.1986145,43.9616379 33,48 L61.516979,48 C68.9629492,48 75,41.8980335 75,34.3710203 C75,26.844007 68.9629492,20.7407275 61.516979,20.7407275" id="cloud_right"></path>
            </g>
            <g id="cloud-1" transform="translate(285.000000, 2.000000)">
                <path d="M17.334298,64 L19.0822008,64 C37.2448044,61.8746622 53.1718735,49.6777863 58.8714842,31.4026032 C61.2072168,23.9145867 61.5595807,16.2507819 60.2275006,8.95726677 C55.7553185,3.48401159 49.0175425,0 41.4798506,0 C34.9424711,0 29.0090645,2.62605105 24.6326274,6.89317137 C21.2147537,9.90595678 18.7710296,14.0256417 17.8464224,18.7101176 C17.3565642,20.6698741 17.0943788,22.7243295 17.0943788,24.8411614 C17.0943788,26.1470987 17.1951337,27.4309207 17.3871804,28.6841215 C17.371594,28.6835544 17.3515543,28.6818532 17.334298,28.6818532 C7.76091143,28.6818532 0,36.5894935 0,46.3417772 C0,56.0940609 7.76091143,64 17.334298,64" id="cloud_left"></path>
                <path d="M88.6646873,29.1334887 C88.3557246,29.1334887 88.0495454,29.1418858 87.7455929,29.1564408 C87.7494897,29.0187281 87.7556133,28.8798958 87.7556133,28.7405036 C87.7556133,17.8399255 78.9649286,9 68.1250696,9 C65.6962331,9 63.3770644,9.45288454 61.2321395,10.2662853 C66.3887549,20.7464478 67.7036556,32.9743303 63.9794025,44.7610842 C61.5895342,52.3263273 57.3982186,58.8346531 52,64 L88.6646873,64 C98.2380776,64 106,56.1951592 106,46.5675841 C106,36.940009 98.2380776,29.1334887 88.6646873,29.1334887" id="cloud_right"></path>
            </g>
            <g id="cloud-1" transform="translate(257.000000, 15.000000)">
                <path d="M13.6401033,50 L15.0155023,50 C29.307387,48.3395798 41.8401627,38.8107706 46.3251023,24.5332837 C48.1630559,18.6832709 48.4403258,12.6959234 47.3921316,6.99786467 C43.8730375,2.72188405 38.571181,0 32.6398824,0 C27.495715,0 22.8268049,2.05160239 19.3830511,5.38529013 C16.6935767,7.73902873 14.7706462,10.9575326 14.0430865,14.6172794 C13.6576243,16.1483391 13.4513145,17.7533824 13.4513145,19.4071574 C13.4513145,20.4274209 13.530597,21.4304068 13.6817157,22.4094699 C13.669451,22.4090269 13.6536821,22.4076978 13.6401033,22.4076978 C6.1069467,22.4076978 0,28.5855418 0,36.2045134 C0,43.8234851 6.1069467,50 13.6401033,50" id="cloud_left"></path>
                <path d="M67.516979,25.7407275 C67.2766747,25.7407275 67.0385353,25.7472926 66.8021278,25.7586719 C66.8051587,25.6510056 66.8099214,25.542464 66.8099214,25.4334847 C66.8099214,16.9112145 59.9727222,10 51.5417208,10 C49.6526257,10 47.8488279,10.3540734 46.180553,10.9900049 C50.1912538,19.1835864 51.2139544,28.7435673 48.317313,37.9586658 C46.4585266,43.8733104 43.1986145,48.9616379 39,53 L67.516979,53 C74.9629492,53 81,46.8980335 81,39.3710203 C81,31.844007 74.9629492,25.7407275 67.516979,25.7407275" id="cloud_right"></path>
            </g>
            <g id="cloud-1" transform="translate(193.000000, 2.000000)">
                <path d="M18.1868044,66 L20.0206697,66 C39.076516,63.8082454 55.7868837,51.2302172 61.7668031,32.3839345 C64.2174078,24.6619175 64.587101,16.7586189 63.1895088,9.23718136 C58.4973833,3.59288695 51.4282414,0 43.5198432,0 C36.6609533,0 30.4357398,2.70811515 25.8440681,7.10858297 C22.2581022,10.2155179 19.694195,14.463943 18.7241153,19.2948088 C18.2101658,21.3158077 17.935086,23.4344648 17.935086,25.6174477 C17.935086,26.9641955 18.040796,28.2881369 18.2422876,29.5805003 C18.2259347,29.5799155 18.2049095,29.5781611 18.1868044,29.5781611 C8.1425956,29.5781611 0,37.7329151 0,47.7899577 C0,57.8470003 8.1425956,66 18.1868044,66" id="cloud_left"></path>
                <path d="M86.0226387,29.8656156 C85.7022329,29.8656156 85.3847137,29.8743181 85.0695037,29.8894023 C85.0735449,29.7466819 85.0798953,29.6028011 85.0798953,29.4583401 C85.0798953,18.1613773 75.9636296,9 64.7222944,9 C62.203501,9 59.7984371,9.46935307 57.5740706,10.3123321 C62.9216717,21.1735913 64.2852725,33.8461241 60.4230841,46.0614873 C57.9447022,53.9018301 53.5981526,60.6468223 48,66 L86.0226387,66 C95.950599,66 104,57.9113468 104,47.933678 C104,37.9560093 95.950599,29.8656156 86.0226387,29.8656156" id="cloud_right"></path>
            </g>
            <g id="cloud-1" transform="translate(177.000000, 8.000000)">
                <path d="M10.7984151,39 L11.8872726,39 C23.2016814,37.7048723 33.1234622,30.2724011 36.6740393,19.1359613 C38.1290859,14.5729513 38.3485912,9.90282023 37.5187708,5.45833444 C34.7328213,2.12306956 30.5355183,0 25.8399069,0 C21.767441,0 18.0712205,1.60024986 15.3449155,4.2005263 C13.2157482,6.03644241 11.6934283,8.54687542 11.1174434,11.4014779 C10.8122859,12.5957045 10.6489573,13.8476383 10.6489573,15.1375827 C10.6489573,15.9333883 10.7117226,16.7157173 10.8313583,17.4793865 C10.8216487,17.479041 10.809165,17.4780043 10.7984151,17.4780043 C4.83466614,17.4780043 0,22.2967226 0,28.2395205 C0,34.1823184 4.83466614,39 10.7984151,39" id="cloud_left"></path>
                <path d="M54.4061978,17.4461567 C54.2173873,17.4461567 54.0302777,17.4513476 53.844529,17.4603452 C53.8469104,17.3752137 53.8506526,17.2893901 53.8506526,17.2032204 C53.8506526,10.4646812 48.4785675,5 41.8542092,5 C40.3699202,5 38.9526505,5.27996499 37.6418631,5.78279456 C40.793128,12.2614404 41.5966784,19.8204951 39.320746,27.106852 C37.8602709,31.7835478 35.2989114,35.8068765 32,39 L54.4061978,39 C60.256603,39 65,34.1751893 65,28.2235974 C65,22.2720055 60.256603,17.4461567 54.4061978,17.4461567" id="cloud_right"></path>
            </g>
            <g id="cloud-1" transform="translate(114.000000, 2.000000)">
                <path d="M16.4817915,60 L18.1437319,60 C35.4130927,58.0074958 50.5568633,46.5729247 55.9761653,29.4399405 C58.1970258,22.419925 58.5320603,15.2351081 57.2654923,8.3974376 C53.0132536,3.26626086 46.6068437,0 39.4398579,0 C33.2239889,0 27.5823892,2.46192286 23.4211868,6.46234816 C20.1714051,9.28683448 17.8478642,13.1490391 16.9687295,17.5407352 C16.5029627,19.378007 16.2536716,21.3040589 16.2536716,23.2885888 C16.2536716,24.512905 16.3494714,25.7164881 16.5320731,26.8913639 C16.5172533,26.8908322 16.4981992,26.8892374 16.4817915,26.8892374 C7.37922727,26.8892374 0,34.3026501 0,43.4454161 C0,52.5881821 7.37922727,60 16.4817915,60" id="cloud_left"></path>
                <path d="M76.6277603,27.0352984 C76.3359621,27.0352984 76.0467928,27.0432375 75.7597266,27.0569986 C75.7634069,26.9267975 75.7691903,26.7955378 75.7691903,26.6637489 C75.7691903,16.3577477 67.466877,8 57.2292324,8 C54.9353312,8 52.7450053,8.42818174 50.7192429,9.19721521 C55.5893796,19.1057324 56.8312303,30.6666395 53.3138801,41.8104796 C51.0567823,48.963073 47.0983176,55.1163993 42,60 L76.6277603,60 C85.6692955,60 93,52.6208778 93,43.5184431 C93,34.4160085 85.6692955,27.0352984 76.6277603,27.0352984" id="cloud_right"></path>
            </g>
            <g id="cloud-1" transform="translate(80.000000, 8.000000)">
                <path d="M11.0825839,41 L12.2000956,41 C23.812252,39.6384555 33.9951322,31.8248319 37.6391456,20.1172926 C39.1324829,15.3202821 39.3577647,10.4106572 38.5061069,5.73824903 C35.646843,2.23194492 31.3390846,0 26.5199045,0 C22.3402684,0 18.546779,1.68231396 15.748729,4.41593791 C13.563531,6.34600356 12.0011501,8.98517672 11.4100077,11.9861691 C11.0968198,13.2416381 10.929193,14.5577736 10.929193,15.913869 C10.929193,16.7504851 10.9936101,17.5729336 11.116394,18.3757653 C11.1064289,18.375402 11.0936167,18.3743122 11.0825839,18.3743122 C4.9618942,18.3743122 0,23.4401442 0,29.687701 C0,35.9352578 4.9618942,41 11.0825839,41" id="cloud_left"></path>
                <path d="M51.7641492,16.1782835 C51.5638956,16.1782835 51.3654461,16.1837798 51.1684398,16.1933067 C51.1709655,16.1031675 51.1749345,16.0122954 51.1749345,15.9210569 C51.1749345,8.78613305 45.4772685,3 38.451434,3 C36.8771881,3 35.3740232,3.29643352 33.9837941,3.8288413 C37.3260448,10.688584 38.1782953,18.6922889 35.7644275,26.4072551 C34.2154389,31.3590506 31.4988454,35.6190457 28,39 L51.7641492,39 C57.9691243,39 63,33.8913769 63,27.5896914 C63,21.2880059 57.9691243,16.1782835 51.7641492,16.1782835" id="cloud_right"></path>
            </g>
            <g id="cloud-1" transform="translate(0.000000, 8.000000)">
                <path d="M23.3018432,76 L25.6514831,76 C50.0667862,73.4761614 71.4769447,58.9923713 79.1387164,37.2905912 C82.2785537,28.3985717 82.7522232,19.2978035 80.9615581,10.6367543 C74.9497724,4.13726376 65.8924342,0 55.7597991,0 C46.9718464,0 38.9957917,3.11843563 33.1127123,8.185641 C28.5181935,11.7633237 25.2331873,16.6554495 23.9902727,22.2182646 C23.3317749,24.5454755 22.9793289,26.9851413 22.9793289,29.4988792 C22.9793289,31.0496797 23.1147699,32.5742183 23.372931,34.0623942 C23.3519788,34.0617208 23.3250402,34.0597007 23.3018432,34.0597007 C10.4327006,34.0597007 0,43.4500235 0,55.0308604 C0,66.6116974 10.4327006,76 23.3018432,76" id="cloud_left"></path>
                <path d="M109.13342,29.5262499 C108.76152,29.5262499 108.392971,29.5364791 108.027103,29.5542098 C108.031793,29.3864506 108.039164,29.2173276 108.039164,29.0475226 C108.039164,15.7686365 97.4577844,5 84.409806,5 C81.4862065,5 78.6946145,5.55169571 76.1127606,6.54256575 C82.3197975,19.3093091 83.9025484,34.2050932 79.4196511,48.5635026 C76.5429579,57.7793441 71.4978557,65.7076683 65,72 L109.13342,72 C120.656945,72 130,62.4922848 130,50.7641479 C130,39.0360109 120.656945,29.5262499 109.13342,29.5262499" id="cloud_right"></path>
            </g>
        </g>
    </g>
</svg>