<?xml version="1.0" encoding="utf-8"?>
<!-- Generator: Adobe Illustrator 25.4.1, SVG Export Plug-In . SVG Version: 6.00 Build 0)  -->
<svg version="1.1" id="Note2" xmlns="http://www.w3.org/2000/svg" xmlns:xlink="http://www.w3.org/1999/xlink" x="0px" y="0px"
	 viewBox="0 0 128 128" style="enable-background:new 0 0 128 128;" xml:space="preserve">
<path d="M46.59,4.15c-2.3,22.68,0.35,45.43-0.92,68.15h8.18c0-0.82,0-1.65,0-2.47c-2.54,0.69-5.08,1.38-7.62,2.06
	c4.14,9.71,4.08,23.29-7.45,27.59c-4.74,1.77-17.57-1.15-14.36-8.42c2.84-6.43,18.69-13.67,22.59-5.15
	c2.19,4.79,9.24,0.63,7.06-4.13c-7.67-16.77-42.37-3.6-38.04,13.65c2.89,11.5,17.88,15.81,27.79,10.82
	c14.77-7.45,15.27-24.85,9.46-38.48c-1.66-3.9-7.63-1.72-7.62,2.06c0,0.82,0,1.65,0,2.47c0.01,5.31,7.88,5.23,8.18,0
	c1.27-22.72-1.38-45.47,0.92-68.15C55.3-1.09,47.12-1.04,46.59,4.15L46.59,4.15z"/>
<path d="M102.86,24.43c-2.3,22.68,0.35,45.43-0.92,68.15h8.18c0-0.82,0-1.65,0-2.47c-2.54,0.69-5.08,1.38-7.62,2.06
	c4.14,9.71,4.08,23.29-7.45,27.59c-4.74,1.77-17.57-1.15-14.36-8.42c2.84-6.43,18.69-13.67,22.59-5.15
	c2.19,4.79,9.24,0.63,7.06-4.13c-7.67-16.77-42.37-3.6-38.04,13.65c2.89,11.5,17.88,15.81,27.79,10.82
	c14.77-7.45,15.27-24.85,9.46-38.48c-1.66-3.9-7.63-1.72-7.62,2.06c0,0.82,0,1.65,0,2.47c0.01,5.31,7.88,5.23,8.18,0
	c1.27-22.72-1.38-45.47,0.92-68.15C111.57,19.19,103.39,19.24,102.86,24.43L102.86,24.43z"/>
<path d="M49.6,0.21c-4.32,1.33-6.45,6.34-2,9.16c4.49,2.83,10.66,3.65,15.72,4.84c8.33,1.96,16.71,3.73,25,5.84
	c3.56,0.91,7.11,1.92,10.58,3.13c1.1,0.38,2.15,0.83,3.19,1.34c2.38,1.17,0.22,0.78,0.91-1.17c-1.76,4.99,6.14,7.11,7.88,2.17
	c3.41-9.67-19.27-13.1-24.48-14.38c-7.37-1.81-14.79-3.38-22.18-5.12c-2.89-0.68-5.77-1.4-8.62-2.22c-1.01-0.29-2.01-0.63-3-1
	c-1.49-0.55-3.28,6.04-0.84,5.29C56.79,6.55,54.65-1.35,49.6,0.21z"/>
<path d="M49.49,16.19C66.35,24.92,85.61,26.97,104.08,30c5.16,0.85,7.37-7.03,2.17-7.89C88.6,19.22,69.73,17.47,53.62,9.13
	C48.95,6.71,44.81,13.76,49.49,16.19z"/>
</svg>
